# Made in Blockbench 4.1.1
mtllib Slingshot.mtl

o cube
v -0.062499999999999986 0.4375 0.06250000000000001
v 0.06250000000000001 0.4375 0.062499999999999986
v -0.062499999999999986 0 0.06250000000000001
v 0.06250000000000001 0 0.062499999999999986
v -0.06250000000000001 0.4375 -0.062499999999999986
v 0.062499999999999986 0.4375 -0.06250000000000001
v -0.06250000000000001 0 -0.062499999999999986
v 0.062499999999999986 0 -0.06250000000000001
v -0.062499999999999986 0.5625 0.06250000000000001
v 0.06250000000000001 0.5625 0.062499999999999986
v -0.06250000000000001 0.5625 -0.062499999999999986
v 0.062499999999999986 0.5625 -0.06250000000000001
v -0.06250000000000006 0.625 -0.25
v 0.062499999999999944 0.625 -0.25
v 0.062499999999999944 0.5 -0.25
v -0.06250000000000006 0.5 -0.25
v 0.06250000000000006 0.625 0.25
v -0.062499999999999944 0.625 0.25
v -0.062499999999999944 0.5 0.25
v 0.06250000000000006 0.5 0.25
v 0.06250000000000008 0.625 0.375
v -0.06249999999999992 0.625 0.375
v -0.06249999999999992 0.5 0.375
v 0.06250000000000008 0.5 0.375
v -0.06250000000000008 0.625 -0.375
v 0.06249999999999992 0.625 -0.375
v 0.06249999999999992 0.5 -0.375
v -0.06250000000000008 0.5 -0.375
v -0.0624999999999999 1.125 0.4375
v 0.0625000000000001 1.125 0.4375
v 0.06250000000000007 1.125 0.3125
v -0.06249999999999993 1.125 0.3125
v 0.0624999999999999 1.125 -0.4375
v -0.0625000000000001 1.125 -0.4375
v -0.06250000000000007 1.125 -0.3125
v 0.06249999999999993 1.125 -0.3125
vt 0.375 0.4375
vt 0.5 0.4375
vt 0.5 0
vt 0.375 0
vt 0.375 0.5625
vt 0.375 1
vt 0.5 1
vt 0.5 0.5625
vt 0.5 0.4375
vt 0.375 0.4375
vt 0.375 0.5625
vt 0.5 0.5625
vt 0.25 0.625
vt 0.25 0.75
vt 0.375 0.75
vt 0.375 0.625
vt 0.375 0
vt 0.375 0.4375
vt 0.5 0.4375
vt 0.5 0
vt 0 0.6875
vt 0.125 0.6875
vt 0.125 0.25
vt 0 0.25
vt 0 0.25
vt 0.125 0.25
vt 0.125 0.125
vt 0 0.125
vt 0 0.8125
vt 0.125 0.8125
vt 0.125 0.6875
vt 0 0.6875
vt 0 0.125
vt 0.125 0.125
vt 0.125 0
vt 0 0
vt 0.125 0.75
vt 0.25 0.75
vt 0.25 0.625
vt 0.125 0.625
vt 0.6875 0.375
vt 0.8125 0.375
vt 0.8125 0.17735625
vt 0.6875 0.17735625
vt 0.5 0.875
vt 0.5 1
vt 0.6875 0.9375
vt 0.6875 0.8125
vt 0.6875 0.8125
vt 0.8125 0.8125
vt 0.8125 0.61485625
vt 0.6875 0.61485625
vt 1 1
vt 1 0.875
vt 0.8125 0.8125
vt 0.8125 0.9375
vt 0.6875 0.375
vt 0.8125 0.375
vt 0.8125 0.17735625
vt 0.6875 0.17735625
vt 0.8125 0.0625
vt 0.8125 0.1875
vt 1 0.125
vt 1 0
vt 0.6875 0.8125
vt 0.8125 0.8125
vt 0.8125 0.61485625
vt 0.6875 0.61485625
vt 0.6875 0.1875
vt 0.6875 0.0625
vt 0.5 0
vt 0.5 0.125
vt 0.125 0.875
vt 0.125 1
vt 0.25 1
vt 0.25 0.875
vt 0.25 0.875
vt 0.25 1
vt 0.375 1
vt 0.375 0.875
vt 0.125 0.5
vt 0.125 0.625
vt 0.25 0.625
vt 0.25 0.5
vt 0.375 0.625
vt 0.375 0.5
vt 0.25 0.5
vt 0.25 0.625
vt 0.8125 0.9375
vt 0.8125 0.8125
vt 0.6875 0.8125
vt 0.6875 0.9375
vt 0.25 0.75
vt 0.25 0.875
vt 0.375 0.875
vt 0.375 0.75
vt 0.25 0.875
vt 0.25 0.75
vt 0.125 0.75
vt 0.125 0.875
vt 0.8125 0.1875
vt 0.8125 0.0625
vt 0.6875 0.0625
vt 0.6875 0.1875
vt 0.125 0.5038874999999999
vt 0.25 0.5038874999999999
vt 0.25 0
vt 0.125 0
vt 0.875 1
vt 1 1
vt 0.9375 0.5
vt 0.8125 0.5
vt 0.25 0.50389375
vt 0.375 0.50389375
vt 0.375 0
vt 0.25 0
vt 0.8125 0.5
vt 0.9375 0.5
vt 1 0
vt 0.875 0
vt 0.6875 1
vt 0.8125 1
vt 0.8125 0.49611250000000007
vt 0.6875 0.49611250000000007
vt 0.5625 0.5
vt 0.6875 0.5
vt 0.625 0
vt 0.5 0
vt 0.6875 0.50389375
vt 0.8125 0.50389375
vt 0.8125 0
vt 0.6875 0
vt 0.5 1
vt 0.625 1
vt 0.6875 0.5
vt 0.5625 0.5
vn 2.220446049250313e-16 0 1
vn -2.220446049250313e-16 0 -1
vn 0 1 0
vn 0 -1 0
vn -1 0 2.220446049250313e-16
vn 1 0 -2.220446049250313e-16
vn -1 0 2.220446049250313e-16
vn 2.220446049250313e-16 0 1
vn 1 0 -2.220446049250313e-16
vn -2.220446049250313e-16 0 -1
vn 7.021666937153403e-17 0.948683298050514 0.316227766016838
vn 1 0 -2.220446049250313e-16
vn -7.021666937153403e-17 -0.948683298050514 -0.316227766016838
vn -1 0 2.220446049250313e-16
vn -7.021666937153403e-17 0.948683298050514 -0.316227766016838
vn -1 0 2.220446049250313e-16
vn 7.021666937153403e-17 -0.948683298050514 0.316227766016838
vn 1 0 -2.220446049250313e-16
vn 0 1 0
vn -1 0 2.220446049250313e-16
vn 0 -1 0
vn 1 0 -2.220446049250313e-16
vn 0 1 0
vn 1 0 -2.220446049250313e-16
vn 0 -1 0
vn -1 0 2.220446049250313e-16
vn 2.2032994911073528e-16 -0.12403473458920847 0.9922778767136677
vn 1 0 -2.220446049250313e-16
vn -2.2032994911073528e-16 0.12403473458920847 -0.9922778767136677
vn -1 0 2.220446049250313e-16
vn -2.2032994911073528e-16 -0.12403473458920847 -0.9922778767136677
vn -1 0 2.220446049250313e-16
vn 2.2032994911073528e-16 0.12403473458920847 0.9922778767136677
vn 1 0 -2.220446049250313e-16
usemtl m_0
f 2/1/1 1/2/1 3/3/1 4/4/1
f 7/5/2 5/6/2 6/7/2 8/8/2
f 11/9/3 9/10/3 10/11/3 12/12/3
f 4/13/4 3/14/4 7/15/4 8/16/4
f 3/17/5 1/18/5 5/19/5 7/20/5
f 6/21/6 2/22/6 4/23/6 8/24/6
f 9/25/7 11/26/7 5/27/7 1/28/7
f 21/29/8 22/30/8 23/31/8 24/32/8
f 12/33/9 10/34/9 2/35/9 6/36/9
f 25/37/10 26/38/10 27/39/10 28/40/10
f 14/41/11 13/42/11 11/43/11 12/44/11
f 15/45/12 14/46/12 12/47/12 6/48/12
f 16/49/13 15/50/13 6/51/13 5/52/13
f 13/53/14 16/54/14 5/55/14 11/56/14
f 18/57/15 17/58/15 10/59/15 9/60/15
f 19/61/16 18/62/16 9/63/16 1/64/16
f 20/65/17 19/66/17 1/67/17 2/68/17
f 17/69/18 20/70/18 2/71/18 10/72/18
f 29/73/19 30/74/19 31/75/19 32/76/19
f 23/77/20 22/78/20 18/79/20 19/80/20
f 24/81/21 23/82/21 19/83/21 20/84/21
f 21/85/22 24/86/22 20/87/22 17/88/22
f 33/89/23 34/90/23 35/91/23 36/92/23
f 27/93/24 26/94/24 14/95/24 15/96/24
f 28/97/25 27/98/25 15/99/25 16/100/25
f 25/101/26 28/102/26 16/103/26 13/104/26
f 30/105/27 29/106/27 22/107/27 21/108/27
f 31/109/28 30/110/28 21/111/28 17/112/28
f 32/113/29 31/114/29 17/115/29 18/116/29
f 29/117/30 32/118/30 18/119/30 22/120/30
f 34/121/31 33/122/31 26/123/31 25/124/31
f 35/125/32 34/126/32 25/127/32 13/128/32
f 36/129/33 35/130/33 13/131/33 14/132/33
f 33/133/34 36/134/34 14/135/34 26/136/34